<svg xmlns="http://www.w3.org/2000/svg" width="389.4117736816406" height="365.48419189453125" viewBox="-94.8886947631836 -75.12188720703125 389.4117736816406 365.48419189453125"><title>Neo4j Graph Visualization</title><desc>Created using Neo4j (http://www.neo4j.com/)</desc><g class="layer relationships"><g class="relationship" transform="translate(-11.048630965564286 261.36230604597034) rotate(241.71259831837887)"><path class="outline" fill="#A5ABB6" stroke="none" d="M 24.018736134675446,-6.953439040707552 L 24.277555179777966,-5.987513214418485 A 110.27078097918961 110.27078097918961 0 0 1 41.49201046030258,-9.161734134436173 L 41.38930217389481,-10.156445654377094 A 111.27078097918961 111.27078097918961 0 0 0 24.018736134675446,-6.953439040707552 Z M 60.78550469321513,-10.459258070599759 L 60.71389765309573,-9.461825149644497 A 110.27078097918961 110.27078097918961 0 0 1 78.01905088835605,-6.8265224045279655 L 77.33342998545547,-3.9059190460580444 L 84.94806220860264,-5.713507524171579 L 78.9332120922235,-10.720660215821194 L 78.24759118932292,-7.800056857351272 A 111.27078097918961 111.27078097918961 0 0 0 60.78550469321513,-10.459258070599759"/><text text-anchor="middle" pointer-events="none" font-size="8px" fill="#000000" x="51.08859696147149" y="-7.2314021928547305" transform="rotate(180 51.08859696147149 -10.23140219285473)" font-family="sans-serif">trek</text></g><g class="relationship" transform="translate(-62.83887653012479 165.1266950063817) rotate(268.51707423762326)"><path class="outline" fill="#A5ABB6" stroke="none" d="M 21.40063509461097,-12.933012701892217 L 21.90063509461097,-12.06698729810778 A 67.27536488624628 67.27536488624628 0 0 1 42.740585126086074,-19.851710486944313 L 42.55035602166892,-20.83345021204086 A 68.27536488624628 68.27536488624628 0 0 0 21.40063509461097,-12.933012701892217 Z M 64.61784874982979,-21.473767941422054 L 64.48486474853998,-20.482649757045962 A 67.27536488624628 67.27536488624628 0 0 1 85.74114021260188,-13.9194046879427 L 84.39431038599581,-11.238723912810336 L 92.22053365901174,-11.223581888383928 L 87.5369133147433,-17.49364572145252 L 86.19008348813723,-14.812964946320156 A 68.27536488624628 68.27536488624628 0 0 0 64.61784874982979,-21.473767941422054"/><text text-anchor="middle" pointer-events="none" font-size="8px" fill="#000000" x="53.57255230599152" y="-18.551663494671843" transform="rotate(180 53.57255230599152 -21.551663494671843)" font-family="sans-serif">road</text></g><g class="relationship" transform="translate(-65.80356832233036 50.605523013044376) rotate(360.292333619904)"><path class="outline" fill="#A5ABB6" stroke="none" d="M 21.40063509461097,12.933012701892217 L 21.90063509461097,12.06698729810778 A 66.85283764433753 66.85283764433753 0 0 0 30.900231228763776,16.40120831645207 L 30.53484924127106,17.33206598721376 A 67.85283764433753 67.85283764433753 0 0 1 21.40063509461097,12.933012701892217 Z M 76.402453913311,18.66751515690804 L 76.09184936487631,17.716975933892122 A 66.85283764433753 66.85283764433753 0 0 0 85.32837103622062,13.913704995804459 L 83.9820713946534,11.232757910329626 L 91.80829750925643,11.219163679726767 L 87.12343722497691,17.4883011097709 L 85.7771375834097,14.807354024296068 A 67.85283764433753 67.85283764433753 0 0 1 76.402453913311,18.66751515690804"/><text text-anchor="middle" pointer-events="none" font-size="8px" fill="#000000" x="53.36688633880788" y="24.49503983652349" font-family="sans-serif">twowheeler</text></g><g class="relationship" transform="translate(48.344469116068986 51.18793237784715) rotate(360.42935845358454)"><path class="outline" fill="#A5ABB6" stroke="none" d="M 25 0.5 L 47.07785484470882 0.5 L 47.07785484470882 -0.5 L 25 -0.5 Z M 66.41379234470881 0.5 L 88.49164718941763 0.5 L 88.49164718941763 3.5 L 95.49164718941763 0 L 88.49164718941763 -3.5 L 88.49164718941763 -0.5 L 66.41379234470881 -0.5 Z"/><text text-anchor="middle" pointer-events="none" font-size="8px" fill="#000000" x="56.74582359470882" y="3" font-family="sans-serif">trek</text></g><g class="relationship" transform="translate(-11.048630965564286 261.36230604597034) rotate(241.71259831837887)"><path class="outline" fill="#A5ABB6" stroke="none" d="M 24.018736134675446,6.953439040707552 L 24.277555179777966,5.987513214418485 A 110.27078097918961 110.27078097918961 0 0 0 40.168060599784155,9.016944836694037 L 40.05334596093414,10.010343322516064 A 111.27078097918961 111.27078097918961 0 0 1 24.018736134675446,6.953439040707552 Z M 62.12537060329439,10.354930522315698 L 62.04172207395124,9.358435201935961 A 110.27078097918961 110.27078097918961 0 0 0 78.01905088835605,6.8265224045279655 L 77.33342998545547,3.9059190460580444 L 84.94806220860264,5.713507524171579 L 78.9332120922235,10.720660215821194 L 78.24759118932292,7.800056857351272 A 111.27078097918961 111.27078097918961 0 0 1 62.12537060329439,10.354930522315698"/><text text-anchor="middle" pointer-events="none" font-size="8px" fill="#000000" x="51.088596961471495" y="13.23140219285473" transform="rotate(180 51.088596961471495 10.23140219285473)" font-family="sans-serif">road</text></g><g class="relationship" transform="translate(-62.83887653012479 165.1266950063817) rotate(268.51707423762326)"><path class="outline" fill="#A5ABB6" stroke="none" d="M 25 0.5 L 44.111801309224056 0.5 L 44.111801309224056 -0.5 L 25 -0.5 Z M 63.447738809224056 0.5 L 82.55954011844811 0.5 L 82.55954011844811 3.5 L 89.55954011844811 0 L 82.55954011844811 -3.5 L 82.55954011844811 -0.5 L 63.447738809224056 -0.5 Z"/><text text-anchor="middle" pointer-events="none" font-size="8px" fill="#000000" x="53.779770059224056" y="3" transform="rotate(180 53.779770059224056 0)" font-family="sans-serif">trek</text></g><g class="relationship" transform="translate(-62.83887653012479 165.1266950063817) rotate(268.51707423762326)"><path class="outline" fill="#A5ABB6" stroke="none" d="M 21.40063509461097,12.933012701892217 L 21.90063509461097,12.06698729810778 A 67.27536488624628 67.27536488624628 0 0 0 31.0980325035061,16.483733658994467 L 30.734745212897522,17.415410826516712 A 68.27536488624628 68.27536488624628 0 0 1 21.40063509461097,12.933012701892217 Z M 76.61177112071906,18.74659391205917 L 76.30311728022922,17.795419476558052 A 67.27536488624628 67.27536488624628 0 0 0 85.74114021260188,13.9194046879427 L 84.39431038599581,11.238723912810336 L 92.22053365901174,11.223581888383928 L 87.5369133147433,17.49364572145252 L 86.19008348813723,14.812964946320156 A 68.27536488624628 68.27536488624628 0 0 1 76.61177112071906,18.74659391205917"/><text text-anchor="middle" pointer-events="none" font-size="8px" fill="#000000" x="53.57255230599151" y="24.551663494671843" transform="rotate(180 53.57255230599151 21.551663494671843)" font-family="sans-serif">twowheeler</text></g><g class="relationship" transform="translate(-65.80356832233036 50.605523013044376) rotate(360.292333619904)"><path class="outline" fill="#A5ABB6" stroke="none" d="M 25 0.5 L 43.90679286077334 0.5 L 43.90679286077334 -0.5 L 25 -0.5 Z M 63.24273036077334 0.5 L 82.14952322154669 0.5 L 82.14952322154669 3.5 L 89.14952322154669 0 L 82.14952322154669 -3.5 L 82.14952322154669 -0.5 L 63.24273036077334 -0.5 Z"/><text text-anchor="middle" pointer-events="none" font-size="8px" fill="#000000" x="53.57476161077334" y="3" font-family="sans-serif">trek</text></g><g class="relationship" transform="translate(-65.80356832233036 50.605523013044376) rotate(360.292333619904)"><path class="outline" fill="#A5ABB6" stroke="none" d="M 21.40063509461097,-12.933012701892217 L 21.90063509461097,-12.06698729810778 A 66.85283764433753 66.85283764433753 0 0 1 42.536356291216336,-19.78856418478695 L 42.34503011754498,-20.770090697555844 A 67.85283764433753 67.85283764433753 0 0 0 21.40063509461097,-12.933012701892217 Z M 64.41225038582161,-21.412584483648303 L 64.27835478492332,-20.421589040641578 A 66.85283764433753 66.85283764433753 0 0 1 85.32837103622062,-13.913704995804459 L 83.9820713946534,-11.232757910329626 L 91.80829750925643,-11.219163679726767 L 87.12343722497691,-17.4883011097709 L 85.7771375834097,-14.807354024296068 A 67.85283764433753 67.85283764433753 0 0 0 64.41225038582161,-21.412584483648303"/><text text-anchor="middle" pointer-events="none" font-size="8px" fill="#000000" x="53.366886338807866" y="-18.49503983652349" font-family="sans-serif">road</text></g><g class="relationship" transform="translate(-11.048630965564286 261.36230604597034) rotate(304.4316862636392)"><path class="outline" fill="#A5ABB6" stroke="none" d="M 21.40063509461097,12.933012701892217 L 21.90063509461097,12.06698729810778 A 62.86733072134967 62.86733072134967 0 0 0 22.25367479749901,12.269294376291299 L 21.759290428047294,13.138537780201752 A 63.86733072134967 63.86733072134967 0 0 1 21.40063509461097,12.933012701892217 Z M 81.51515528060193,14.936113967155904 L 81.07391475110074,14.038725090957016 A 62.86733072134967 62.86733072134967 0 0 0 81.43847668172067,13.858004908240549 L 80.09735836618398,11.174462163335592 L 87.92359613908835,11.17598596280576 L 83.2266344357696,17.436061901447157 L 81.88551612023291,14.7525191565422 A 63.86733072134967 63.86733072134967 0 0 1 81.51515528060193,14.936113967155904"/><text text-anchor="middle" pointer-events="none" font-size="8px" fill="#000000" x="51.42894604469045" y="23.96096058732556" font-family="sans-serif">PublicTransport</text></g><g class="relationship" transform="translate(51.309891059216554 170.39793773567902) rotate(268.5750262441793)"><path class="outline" fill="#A5ABB6" stroke="none" d="M 25 0.5 L 46.45547274895074 0.5 L 46.45547274895074 -0.5 L 25 -0.5 Z M 65.79141024895074 0.5 L 87.24688299790148 0.5 L 87.24688299790148 3.5 L 94.24688299790148 0 L 87.24688299790148 -3.5 L 87.24688299790148 -0.5 L 65.79141024895074 -0.5 Z"/><text text-anchor="middle" pointer-events="none" font-size="8px" fill="#000000" x="56.12344149895074" y="3" transform="rotate(180 56.12344149895074 0)" font-family="sans-serif">trek</text></g><g class="relationship" transform="translate(-11.048630965564286 261.36230604597034) rotate(304.4316862636392)"><path class="outline" fill="#A5ABB6" stroke="none" d="M 25 0.5 L 40.637366798314815 0.5 L 40.637366798314815 -0.5 L 25 -0.5 Z M 62.649085548314815 0.5 L 78.28645234662963 0.5 L 78.28645234662963 3.5 L 85.28645234662963 0 L 78.28645234662963 -3.5 L 78.28645234662963 -0.5 L 62.649085548314815 -0.5 Z"/><text text-anchor="middle" pointer-events="none" font-size="8px" fill="#000000" x="51.643226173314815" y="3" font-family="sans-serif">road</text></g><g class="relationship" transform="translate(-11.048630965564286 261.36230604597034) rotate(304.4316862636392)"><path class="outline" fill="#A5ABB6" stroke="none" d="M 21.40063509461097,-12.933012701892217 L 21.90063509461097,-12.06698729810778 A 62.86733072134967 62.86733072134967 0 0 1 41.915743973298646,-19.443943400312357 L 41.734114558609505,-20.427310450665217 A 63.86733072134967 63.86733072134967 0 0 0 21.40063509461097,-12.933012701892217 Z M 61.13832466887005,-21.01102798377977 L 61.01613349342179,-20.018521401110128 A 62.86733072134967 62.86733072134967 0 0 1 81.43847668172067,-13.858004908240549 L 80.09735836618398,-11.174462163335592 L 87.92359613908835,-11.17598596280576 L 83.2266344357696,-17.436061901447157 L 81.88551612023291,-14.7525191565422 A 63.86733072134967 63.86733072134967 0 0 0 61.13832466887005,-21.01102798377977"/><text text-anchor="middle" pointer-events="none" font-size="8px" fill="#000000" x="51.428946044690434" y="-17.96096058732556" font-family="sans-serif">trek</text></g><g class="relationship" transform="translate(51.309891059216554 170.39793773567902) rotate(355.9026955877306)"><path class="outline" fill="#A5ABB6" stroke="none" d="M 24.018736134675446,-6.953439040707552 L 24.277555179777966,-5.987513214418485 A 131.53548445356992 131.53548445356992 0 0 1 46.82447476924687,-9.966061738572904 L 46.73706893391914,-10.962234524765478 A 132.53548445356992 132.53548445356992 0 0 0 24.018736134675446,-6.953439040707552 Z M 66.12690847187987,-11.239431347756465 L 66.06801507558745,-10.241167070186066 A 131.53548445356992 131.53548445356992 0 0 1 88.71945177151254,-6.908773494462104 L 88.02614817587875,-3.9899843406722555 L 95.64551039629448,-5.777529963614905 L 89.64385656569092,-10.800492366181903 L 88.95055297005713,-7.881703212392053 A 132.53548445356992 132.53548445356992 0 0 0 66.12690847187987,-11.239431347756465"/><text text-anchor="middle" pointer-events="none" font-size="8px" fill="#000000" x="56.43405943452678" y="-7.955985843333281" font-family="sans-serif">trek</text></g><g class="relationship" transform="translate(170.97202173272348 161.82610819232016) rotate(352.77254596488615)"><path class="outline" fill="#A5ABB6" stroke="none" d="M 24.018736134675446,-6.953439040707552 L 24.277555179777966,-5.987513214418485 A 82.23275949885956 82.23275949885956 0 0 1 34.525341952726556,-8.045673536756553 L 34.39114218144387,-9.036627835091082 A 83.23275949885956 83.23275949885956 0 0 0 24.018736134675446,-6.953439040707552 Z M 53.79663725445554,-9.381074259864533 L 53.69768970261869,-8.38598160991404 A 82.23275949885956 82.23275949885956 0 0 1 64.01206260739193,-6.692798442756204 L 63.338932947737376,-3.769290881402317 L 70.94576852716008,-5.609413830454572 L 64.90956882026465,-10.590808524561385 L 64.2364391606101,-7.6673009632074995 A 83.23275949885956 83.23275949885956 0 0 0 53.79663725445554,-9.381074259864533"/><text text-anchor="middle" pointer-events="none" font-size="8px" fill="#000000" x="44.09268901124247" y="-6.276496714308621" font-family="sans-serif">trek</text></g><g class="relationship" transform="translate(265.5230840048895 149.83550004066012) rotate(225.3106747739858)"><path class="outline" fill="#A5ABB6" stroke="none" d="M 24.018736134675446,6.953439040707552 L 24.277555179777966,5.987513214418485 A 166.19942067019375 166.19942067019375 0 0 0 42.14011127592333,9.736236474121483 L 41.98876887558957,10.724717873977454 A 167.19942067019375 167.19942067019375 0 0 1 24.018736134675446,6.953439040707552 Z M 88.43859557186093,11.308113447367333 L 88.3121270413309,10.316142827446782 A 166.19942067019375 166.19942067019375 0 0 0 106.26319931287158,7.017227753108176 L 105.55976601650694,4.100863304421148 L 113.18528857586874,5.861944136371884 L 107.20111037469108,10.90571368469088 L 106.49767707832645,7.989349236003853 A 167.19942067019375 167.19942067019375 0 0 1 88.43859557186093,11.308113447367333"/><text text-anchor="middle" pointer-events="none" font-size="8px" fill="#000000" x="65.19960206704292" y="15.137474625776036" transform="rotate(180 65.19960206704292 12.137474625776036)" font-family="sans-serif">twowheeler</text></g><g class="relationship" transform="translate(51.309891059216554 170.39793773567902) rotate(355.9026955877306)"><path class="outline" fill="#A5ABB6" stroke="none" d="M 24.018736134675446,6.953439040707552 L 24.277555179777966,5.987513214418485 A 131.53548445356992 131.53548445356992 0 0 0 33.44738922663447,8.096157554413281 L 33.25828394801063,9.078114373014074 A 132.53548445356992 132.53548445356992 0 0 1 24.018736134675446,6.953439040707552 Z M 79.6540448194429,9.741387397457231 L 79.49308716161832,8.754426084949188 A 131.53548445356992 131.53548445356992 0 0 0 88.71945177151254,6.908773494462104 L 88.02614817587875,3.9899843406722555 L 95.64551039629448,5.777529963614905 L 89.64385656569092,10.800492366181903 L 88.95055297005713,7.881703212392053 A 132.53548445356992 132.53548445356992 0 0 1 79.6540448194429,9.741387397457231"/><text text-anchor="middle" pointer-events="none" font-size="8px" fill="#000000" x="56.434059434526795" y="13.95598584333328" font-family="sans-serif">twowheeler</text></g><g class="relationship" transform="translate(170.97202173272348 161.82610819232016) rotate(352.77254596488615)"><path class="outline" fill="#A5ABB6" stroke="none" d="M 24.018736134675446,6.953439040707552 L 24.277555179777966,5.987513214418485 A 82.23275949885956 82.23275949885956 0 0 0 26.061930544819983,6.444279249266245 L 25.8248105813963,7.415759626291916 A 83.23275949885956 83.23275949885956 0 0 1 24.018736134675446,6.953439040707552 Z M 62.41509524223728,8.065235080819093 L 62.212601225767116,7.0859515808591595 A 82.23275949885956 82.23275949885956 0 0 0 64.01206260739193,6.692798442756204 L 63.338932947737376,3.769290881402317 L 70.94576852716008,5.609413830454572 L 64.90956882026465,10.590808524561385 L 64.2364391606101,7.6673009632074995 A 83.23275949885956 83.23275949885956 0 0 1 62.41509524223728,8.065235080819093"/><text text-anchor="middle" pointer-events="none" font-size="8px" fill="#000000" x="44.092689011242484" y="12.276496714308635" font-family="sans-serif">twowh…</text></g><g class="relationship" transform="translate(265.5230840048895 149.83550004066012) rotate(225.3106747739858)"><path class="outline" fill="#A5ABB6" stroke="none" d="M 24.018736134675446,-6.953439040707552 L 24.277555179777966,-5.987513214418485 A 166.19942067019375 166.19942067019375 0 0 1 55.57658262168026,-11.237116451157931 L 55.5060856977722,-12.234628447937666 A 167.19942067019375 167.19942067019375 0 0 0 24.018736134675446,-6.953439040707552 Z M 74.88762063435969,-12.478054580858299 L 74.84219888547032,-11.479086681109834 A 166.19942067019375 166.19942067019375 0 0 1 106.26319931287158,-7.017227753108176 L 105.55976601650694,-4.100863304421148 L 113.18528857586874,-5.861944136371884 L 107.20111037469108,-10.90571368469088 L 106.49767707832645,-7.989349236003853 A 167.19942067019375 167.19942067019375 0 0 0 74.88762063435969,-12.478054580858299"/><text text-anchor="middle" pointer-events="none" font-size="8px" fill="#000000" x="65.19960206704287" y="-9.137474625776036" transform="rotate(180 65.19960206704287 -12.137474625776036)" font-family="sans-serif">trek</text></g><g class="relationship" transform="translate(51.309891059216554 170.39793773567902) rotate(182.6439668045707)"><path class="outline" fill="#A5ABB6" stroke="none" d="M 25 0.5 L 43.96723743252076 0.5 L 43.96723743252076 -0.5 L 25 -0.5 Z M 63.30317493252076 0.5 L 82.27041236504152 0.5 L 82.27041236504152 3.5 L 89.27041236504152 0 L 82.27041236504152 -3.5 L 82.27041236504152 -0.5 L 63.30317493252076 -0.5 Z"/><text text-anchor="middle" pointer-events="none" font-size="8px" fill="#000000" x="53.63520618252076" y="3" transform="rotate(180 53.63520618252076 0)" font-family="sans-serif">trek</text></g><g class="relationship" transform="translate(170.97202173272348 161.82610819232016) rotate(310.340248257318)"><path class="outline" fill="#A5ABB6" stroke="none" d="M 24.018736134675446,-6.953439040707552 L 24.277555179777966,-5.987513214418485 A 161.4014130252545 161.4014130252545 0 0 1 54.361653236848554,-11.063258592123589 L 54.28922721949706,-12.060632379632864 A 162.4014130252545 162.4014130252545 0 0 0 24.018736134675446,-6.953439040707552 Z M 73.67177321119088,-12.308244814979247 L 73.62484961433256,-11.30934633362196 A 161.4014130252545 161.4014130252545 0 0 1 103.82879410186627,-7.003781975641132 L 103.1266166187215,-4.087114908222489 L 110.7513801730339,-5.8514790262064365 L 104.7650307460593,-10.892671398865991 L 104.06285326291453,-7.976004331447347 A 162.4014130252545 162.4014130252545 0 0 0 73.67177321119088,-12.308244814979247"/><text text-anchor="middle" pointer-events="none" font-size="8px" fill="#000000" x="63.98318955187768" y="-8.973923366199443" font-family="sans-serif">trek</text></g><g class="relationship" transform="translate(258.3978044342341 58.88384617376518) rotate(445.52051776027196)"><path class="outline" fill="#A5ABB6" stroke="none" d="M 21.40063509461097,12.933012701892217 L 21.90063509461097,12.06698729810778 A 43.05551337296904 43.05551337296904 0 0 0 32.44591910883957,16.41108755095442 L 32.19084207428838,17.378008285267512 A 44.05551337296904 44.05551337296904 0 0 1 21.40063509461097,12.933012701892217 Z M 51.576000645330105,18.075369851259197 L 51.391061048888275,17.092619961578244 A 43.05551337296904 43.05551337296904 0 0 0 62.22123175182006,13.517480175096376 L 60.91179387742302,10.818337264264388 L 68.73747152282753,10.911982286641958 L 63.96714891768278,17.116337389539027 L 62.65771104328574,14.417194478707037 A 44.05551337296904 44.05551337296904 0 0 1 51.576000645330105,18.075369851259197"/><text text-anchor="middle" pointer-events="none" font-size="8px" fill="#000000" x="41.862538911192566" y="21.307176433107216" font-family="sans-serif">trek</text></g><g class="relationship" transform="translate(170.97202173272348 161.82610819232016) rotate(310.340248257318)"><path class="outline" fill="#A5ABB6" stroke="none" d="M 24.018736134675446,6.953439040707552 L 24.277555179777966,5.987513214418485 A 161.4014130252545 161.4014130252545 0 0 0 40.93138092838142,9.520361912036378 L 40.77574453475914,10.508176324251679 A 162.4014130252545 162.4014130252545 0 0 1 24.018736134675446,6.953439040707552 Z M 87.22050462897846,11.101509117628552 L 87.09015360888904,10.11004121014912 A 161.4014130252545 161.4014130252545 0 0 0 103.82879410186627,7.003781975641132 L 103.1266166187215,4.087114908222489 L 110.7513801730339,5.8514790262064365 L 104.7650307460593,10.892671398865991 L 104.06285326291453,7.976004331447347 A 162.4014130252545 162.4014130252545 0 0 1 87.22050462897846,11.101509117628552"/><text text-anchor="middle" pointer-events="none" font-size="8px" fill="#000000" x="63.98318955187774" y="14.973923366199443" font-family="sans-serif">twowheeler</text></g><g class="relationship" transform="translate(258.3978044342341 58.88384617376518) rotate(445.52051776027196)"><path class="outline" fill="#A5ABB6" stroke="none" d="M 25 0.5 L 31.10930518154705 0.5 L 31.10930518154705 -0.5 L 25 -0.5 Z M 53.12102393154705 0.5 L 59.2303291130941 0.5 L 59.2303291130941 3.5 L 66.2303291130941 0 L 59.2303291130941 -3.5 L 59.2303291130941 -0.5 L 53.12102393154705 -0.5 Z"/><text text-anchor="middle" pointer-events="none" font-size="8px" fill="#000000" x="42.11516455654705" y="3" font-family="sans-serif">road</text></g><g class="relationship" transform="translate(258.3978044342341 58.88384617376518) rotate(445.52051776027196)"><path class="outline" fill="#A5ABB6" stroke="none" d="M 21.40063509461097,-12.933012701892217 L 21.90063509461097,-12.06698729810778 A 43.05551337296904 43.05551337296904 0 0 1 22.482714530382044,-12.397046863253841 L 21.996233807941895,-13.270738174126343 A 44.05551337296904 44.05551337296904 0 0 0 21.40063509461097,-12.933012701892217 Z M 62.039384636883206,-14.711250216727137 L 61.61694051057763,-13.804861249368244 A 43.05551337296904 43.05551337296904 0 0 1 62.22123175182006,-13.517480175096376 L 60.91179387742302,-10.818337264264388 L 68.73747152282753,-10.911982286641958 L 63.96714891768278,-17.116337389539027 L 62.65771104328574,-14.417194478707037 A 44.05551337296904 44.05551337296904 0 0 0 62.039384636883206,-14.711250216727137"/><text text-anchor="middle" pointer-events="none" font-size="8px" fill="#000000" x="41.86253891119257" y="-15.307176433107216" font-family="sans-serif">twowhe…</text></g><g class="relationship" transform="translate(258.3978044342341 58.88384617376518) rotate(250.0551373699064)"><path class="outline" fill="#A5ABB6" stroke="none" d="M 25 0.5 L 42.68487733039719 0.5 L 42.68487733039719 -0.5 L 25 -0.5 Z M 62.02081483039719 0.5 L 79.70569216079438 0.5 L 79.70569216079438 3.5 L 86.70569216079438 0 L 79.70569216079438 -3.5 L 79.70569216079438 -0.5 L 62.02081483039719 -0.5 Z"/><text text-anchor="middle" pointer-events="none" font-size="8px" fill="#000000" x="52.35284608039719" y="3" transform="rotate(180 52.35284608039719 0)" font-family="sans-serif">trek</text></g><g class="relationship" transform="translate(220.2932399558536 -46.12188617945022) rotate(477.65317938701514)"><path class="outline" fill="#A5ABB6" stroke="none" d="M 25 0.5 L 42.271020639069306 0.5 L 42.271020639069306 -0.5 L 25 -0.5 Z M 61.606958139069306 0.5 L 78.87797877813861 0.5 L 78.87797877813861 3.5 L 85.87797877813861 0 L 78.87797877813861 -3.5 L 78.87797877813861 -0.5 L 61.606958139069306 -0.5 Z"/><text text-anchor="middle" pointer-events="none" font-size="8px" fill="#000000" x="51.938989389069306" y="3" transform="rotate(180 51.938989389069306 0)" font-family="sans-serif">trek</text></g></g><g class="layer nodes"><g class="node" transform="translate(-11.048630965564286,261.36230604597034)"><circle class="outline" cx="0" cy="0" r="25" fill="#F16667" stroke="#eb2728" stroke-width="2px"/><text text-anchor="middle" pointer-events="none" font-family="sans-serif" dy="1.5625" font-size="25" fill="#FFFFFF"/><text text-anchor="middle" pointer-events="none" x="0" y="5" font-size="10px" fill="#FFFFFF" font-family="sans-serif"> Darjeeling</text></g><g class="node" transform="translate(168.8327331677081,52.09085443515939)"><circle class="outline" cx="0" cy="0" r="25" fill="#D9C8AE" stroke="#c0a378" stroke-width="2px"/><text text-anchor="middle" pointer-events="none" font-family="sans-serif" dy="1.5625" font-size="25" fill="#2A2C34"/><text text-anchor="middle" pointer-events="none" x="0" y="5" font-size="10px" fill="#2A2C34" font-family="sans-serif"> Sandak…</text></g><g class="node" transform="translate(265.5230840048895,149.83550004066012)"><circle class="outline" cx="0" cy="0" r="25" fill="#8DCC93" stroke="#5db665" stroke-width="2px"/><text text-anchor="middle" pointer-events="none" font-family="sans-serif" dy="1.5625" font-size="25" fill="#2A2C34"/><text text-anchor="middle" pointer-events="none" x="0" y="5" font-size="10px" fill="#2A2C34" font-family="sans-serif"> Gurdum</text></g><g class="node" transform="translate(170.97202173272348,161.82610819232016)"><circle class="outline" cx="0" cy="0" r="25" fill="#8DCC93" stroke="#5db665" stroke-width="2px"/><text text-anchor="middle" pointer-events="none" font-family="sans-serif" dy="1.5625" font-size="25" fill="#2A2C34"/><text text-anchor="middle" pointer-events="none" x="0" y="5" font-size="10px" fill="#2A2C34" font-family="sans-serif"> Sirikhola</text></g><g class="node" transform="translate(258.3978044342341,58.88384617376518)"><circle class="outline" cx="0" cy="0" r="25" fill="#8DCC93" stroke="#5db665" stroke-width="2px"/><text text-anchor="middle" pointer-events="none" font-family="sans-serif" dy="1.5625" font-size="25" fill="#2A2C34"/><text text-anchor="middle" pointer-events="none" x="0" y="5" font-size="10px" fill="#2A2C34" font-family="sans-serif"> Rammam</text></g><g class="node" transform="translate(220.2932399558536,-46.12188617945022)"><circle class="outline" cx="0" cy="0" r="25" fill="#D9C8AE" stroke="#c0a378" stroke-width="2px"/><text text-anchor="middle" pointer-events="none" font-family="sans-serif" dy="1.5625" font-size="25" fill="#2A2C34"/><text text-anchor="middle" pointer-events="none" x="0" y="5" font-size="10px" fill="#2A2C34" font-family="sans-serif"> Sabargr…</text></g><g class="node" transform="translate(-62.83887653012479,165.1266950063817)"><circle class="outline" cx="0" cy="0" r="25" fill="#8DCC93" stroke="#5db665" stroke-width="2px"/><text text-anchor="middle" pointer-events="none" font-family="sans-serif" dy="1.5625" font-size="25" fill="#2A2C34"/><text text-anchor="middle" pointer-events="none" x="0" y="5" font-size="10px" fill="#2A2C34" font-family="sans-serif"> Tumbling</text></g><g class="node" transform="translate(-65.80356832233036,50.605523013044376)"><circle class="outline" cx="0" cy="0" r="25" fill="#8DCC93" stroke="#5db665" stroke-width="2px"/><text text-anchor="middle" pointer-events="none" font-family="sans-serif" dy="1.5625" font-size="25" fill="#2A2C34"/><text text-anchor="middle" pointer-events="none" x="0" y="5" font-size="10px" fill="#2A2C34" font-family="sans-serif"> Gairibus</text></g><g class="node" transform="translate(48.344469116068986,51.18793237784715)"><circle class="outline" cx="0" cy="0" r="25" fill="#8DCC93" stroke="#5db665" stroke-width="2px"/><text text-anchor="middle" pointer-events="none" font-family="sans-serif" dy="1.5625" font-size="25" fill="#2A2C34"/><text text-anchor="middle" pointer-events="none" x="0" y="5" font-size="10px" fill="#2A2C34" font-family="sans-serif"> BhikeBh…</text></g><g class="node" transform="translate(51.309891059216554,170.39793773567902)"><circle class="outline" cx="0" cy="0" r="25" fill="#F16667" stroke="#eb2728" stroke-width="2px"/><text text-anchor="middle" pointer-events="none" font-family="sans-serif" dy="1.5625" font-size="25" fill="#FFFFFF"/><text text-anchor="middle" pointer-events="none" x="0" y="5" font-size="10px" fill="#FFFFFF" font-family="sans-serif"> Rimbik</text></g></g></svg>