<svg xmlns="http://www.w3.org/2000/svg" width="689.7159423828125" height="686.773681640625" viewBox="-230.63438415527344 -202.9731903076172 689.7159423828125 686.773681640625"><title>Neo4j Graph Visualization</title><desc>Created using Neo4j (http://www.neo4j.com/)</desc><g class="layer relationships"><g class="relationship" transform="translate(255.45037036857562 62.23363540317048) rotate(507.0565607799099)"><path class="outline" fill="#A5ABB6" stroke="none" d="M 25 0.5 L 65.40923672143822 0.5 L 65.40923672143822 -0.5 L 25 -0.5 Z M 99.85454922143822 0.5 L 140.26378594287644 0.5 L 140.26378594287644 3.5 L 147.26378594287644 0 L 140.26378594287644 -3.5 L 140.26378594287644 -0.5 L 99.85454922143822 -0.5 Z"/><text text-anchor="middle" pointer-events="none" font-size="8px" fill="#000000" x="82.63189297143822" y="3" transform="rotate(180 82.63189297143822 0)" font-family="sans-serif">ORIGIN</text></g><g class="relationship" transform="translate(255.45037036857562 62.23363540317048) rotate(321.3122412521982)"><path class="outline" fill="#A5ABB6" stroke="none" d="M 25 0.5 L 45.5797347518173 0.5 L 45.5797347518173 -0.5 L 25 -0.5 Z M 104.7672347518173 0.5 L 125.3469695036346 0.5 L 125.3469695036346 3.5 L 132.3469695036346 0 L 125.3469695036346 -3.5 L 125.3469695036346 -0.5 L 104.7672347518173 -0.5 Z"/><text text-anchor="middle" pointer-events="none" font-size="8px" fill="#000000" x="75.1734847518173" y="3" font-family="sans-serif">DESTINATION</text></g><g class="relationship" transform="translate(90.69146831170313 250.4921266799975) rotate(282.0523157489609)"><path class="outline" fill="#A5ABB6" stroke="none" d="M 25 0.5 L 27.633017862648558 0.5 L 27.633017862648558 -0.5 L 25 -0.5 Z M 62.07833036264856 0.5 L 64.71134822529712 0.5 L 64.71134822529712 3.5 L 71.71134822529712 0 L 64.71134822529712 -3.5 L 64.71134822529712 -0.5 L 62.07833036264856 -0.5 Z"/><text text-anchor="middle" pointer-events="none" font-size="8px" fill="#000000" x="44.85567411264856" y="3" font-family="sans-serif">ORIGIN</text></g><g class="relationship" transform="translate(90.69146831170313 250.4921266799975) rotate(245.99307474269966)"><path class="outline" fill="#A5ABB6" stroke="none" d="M 25 0.5 L 29.927367596187707 0.5 L 29.927367596187707 -0.5 L 25 -0.5 Z M 89.11486759618771 0.5 L 94.04223519237541 0.5 L 94.04223519237541 3.5 L 101.04223519237541 0 L 94.04223519237541 -3.5 L 94.04223519237541 -0.5 L 89.11486759618771 -0.5 Z"/><text text-anchor="middle" pointer-events="none" font-size="8px" fill="#000000" x="59.52111759618771" y="3" transform="rotate(180 59.52111759618771 0)" font-family="sans-serif">DESTINATION</text></g><g class="relationship" transform="translate(110.82525982670813 43.52891198183869) rotate(449.96941278943905)"><path class="outline" fill="#A5ABB6" stroke="none" d="M 25 0.5 L 35.46917206912875 0.5 L 35.46917206912875 -0.5 L 25 -0.5 Z M 69.91448456912875 0.5 L 80.3836566382575 0.5 L 80.3836566382575 3.5 L 87.3836566382575 0 L 80.3836566382575 -3.5 L 80.3836566382575 -0.5 L 69.91448456912875 -0.5 Z"/><text text-anchor="middle" pointer-events="none" font-size="8px" fill="#000000" x="52.69182831912875" y="3" font-family="sans-serif">ORIGIN</text></g><g class="relationship" transform="translate(110.82525982670813 43.52891198183869) rotate(487.87302387398006)"><path class="outline" fill="#A5ABB6" stroke="none" d="M 25 0.5 L 25.06891541389735 0.5 L 25.06891541389735 -0.5 L 25 -0.5 Z M 84.25641541389734 0.5 L 84.3253308277947 0.5 L 84.3253308277947 3.5 L 91.3253308277947 0 L 84.3253308277947 -3.5 L 84.3253308277947 -0.5 L 84.25641541389734 -0.5 Z"/><text text-anchor="middle" pointer-events="none" font-size="8px" fill="#000000" x="54.66266541389735" y="3" transform="rotate(180 54.66266541389735 0)" font-family="sans-serif">DESTINATION</text></g><g class="relationship" transform="translate(161.26260170271894 79.49294530991014) rotate(483.3936762793806)"><path class="outline" fill="#A5ABB6" stroke="none" d="M 25 0.5 L 25.042596353551772 0.5 L 25.042596353551772 -0.5 L 25 -0.5 Z M 59.48790885355177 0.5 L 59.530505207103545 0.5 L 59.530505207103545 3.5 L 66.53050520710354 0 L 59.530505207103545 -3.5 L 59.530505207103545 -0.5 L 59.48790885355177 -0.5 Z"/><text text-anchor="middle" pointer-events="none" font-size="8px" fill="#000000" x="42.26525260355177" y="3" transform="rotate(180 42.26525260355177 0)" font-family="sans-serif">ORIGIN</text></g><g class="relationship" transform="translate(161.26260170271894 79.49294530991014) rotate(515.371900194283)"><path class="outline" fill="#A5ABB6" stroke="none" d="M 25 0.5 L 33.92868009583471 0.5 L 33.92868009583471 -0.5 L 25 -0.5 Z M 93.11618009583471 0.5 L 102.04486019166941 0.5 L 102.04486019166941 3.5 L 109.04486019166941 0 L 102.04486019166941 -3.5 L 102.04486019166941 -0.5 L 93.11618009583471 -0.5 Z"/><text text-anchor="middle" pointer-events="none" font-size="8px" fill="#000000" x="63.52243009583471" y="3" transform="rotate(180 63.52243009583471 0)" font-family="sans-serif">DESTINATION</text></g><g class="relationship" transform="translate(92.68662593089915 335.1149099203556) rotate(275.7987081925306)"><path class="outline" fill="#A5ABB6" stroke="none" d="M 25 0.5 L 69.33937096948235 0.5 L 69.33937096948235 -0.5 L 25 -0.5 Z M 103.78468346948235 0.5 L 148.1240544389647 0.5 L 148.1240544389647 3.5 L 155.1240544389647 0 L 148.1240544389647 -3.5 L 148.1240544389647 -0.5 L 103.78468346948235 -0.5 Z"/><text text-anchor="middle" pointer-events="none" font-size="8px" fill="#000000" x="86.56202721948235" y="3" font-family="sans-serif">ORIGIN</text></g><g class="relationship" transform="translate(92.68662593089915 335.1149099203556) rotate(482.25145044746705)"><path class="outline" fill="#A5ABB6" stroke="none" d="M 25 0.5 L 37.66630907176615 0.5 L 37.66630907176615 -0.5 L 25 -0.5 Z M 96.85380907176615 0.5 L 109.5201181435323 0.5 L 109.5201181435323 3.5 L 116.5201181435323 0 L 109.5201181435323 -3.5 L 109.5201181435323 -0.5 L 96.85380907176615 -0.5 Z"/><text text-anchor="middle" pointer-events="none" font-size="8px" fill="#000000" x="67.26005907176615" y="3" transform="rotate(180 67.26005907176615 0)" font-family="sans-serif">DESTINATION</text></g><g class="relationship" transform="translate(222.99376759592832 229.43471977662514) rotate(213.2573645963206)"><path class="outline" fill="#A5ABB6" stroke="none" d="M 25 0.5 L 46.31059582688721 0.5 L 46.31059582688721 -0.5 L 25 -0.5 Z M 80.75590832688721 0.5 L 102.06650415377442 0.5 L 102.06650415377442 3.5 L 109.06650415377442 0 L 102.06650415377442 -3.5 L 102.06650415377442 -0.5 L 80.75590832688721 -0.5 Z"/><text text-anchor="middle" pointer-events="none" font-size="8px" fill="#000000" x="63.53325207688721" y="3" transform="rotate(180 63.53325207688721 0)" font-family="sans-serif">ORIGIN</text></g><g class="relationship" transform="translate(222.99376759592832 229.43471977662514) rotate(407.9173696404322)"><path class="outline" fill="#A5ABB6" stroke="none" d="M 25 0.5 L 45.37085071335069 0.5 L 45.37085071335069 -0.5 L 25 -0.5 Z M 104.55835071335069 0.5 L 124.92920142670138 0.5 L 124.92920142670138 3.5 L 131.92920142670138 0 L 124.92920142670138 -3.5 L 124.92920142670138 -0.5 L 104.55835071335069 -0.5 Z"/><text text-anchor="middle" pointer-events="none" font-size="8px" fill="#000000" x="74.96460071335069" y="3" font-family="sans-serif">DESTINATION</text></g><g class="relationship" transform="translate(-40.06929082758234 118.4730540022329) rotate(373.92933278246653)"><path class="outline" fill="#A5ABB6" stroke="none" d="M 25 0.5 L 57.04139574591298 0.5 L 57.04139574591298 -0.5 L 25 -0.5 Z M 91.48670824591298 0.5 L 123.52810399182596 0.5 L 123.52810399182596 3.5 L 130.52810399182596 0 L 123.52810399182596 -3.5 L 123.52810399182596 -0.5 L 91.48670824591298 -0.5 Z"/><text text-anchor="middle" pointer-events="none" font-size="8px" fill="#000000" x="74.26405199591298" y="3" font-family="sans-serif">ORIGIN</text></g><g class="relationship" transform="translate(-40.06929082758234 118.4730540022329) rotate(182.25610973288036)"><path class="outline" fill="#A5ABB6" stroke="none" d="M 25 0.5 L 47.751462533746746 0.5 L 47.751462533746746 -0.5 L 25 -0.5 Z M 106.93896253374675 0.5 L 129.6904250674935 0.5 L 129.6904250674935 3.5 L 136.6904250674935 0 L 129.6904250674935 -3.5 L 129.6904250674935 -0.5 L 106.93896253374675 -0.5 Z"/><text text-anchor="middle" pointer-events="none" font-size="8px" fill="#000000" x="77.34521253374675" y="3" transform="rotate(180 77.34521253374675 0)" font-family="sans-serif">DESTINATION</text></g><g class="relationship" transform="translate(205.3738290302089 2.743377504564822) rotate(481.6700319310333)"><path class="outline" fill="#A5ABB6" stroke="none" d="M 25 0.5 L 69.26190731134398 0.5 L 69.26190731134398 -0.5 L 25 -0.5 Z M 103.70721981134398 0.5 L 147.96912712268795 0.5 L 147.96912712268795 3.5 L 154.96912712268795 0 L 147.96912712268795 -3.5 L 147.96912712268795 -0.5 L 103.70721981134398 -0.5 Z"/><text text-anchor="middle" pointer-events="none" font-size="8px" fill="#000000" x="86.48456356134398" y="3" transform="rotate(180 86.48456356134398 0)" font-family="sans-serif">ORIGIN</text></g><g class="relationship" transform="translate(205.3738290302089 2.743377504564822) rotate(292.3556277499336)"><path class="outline" fill="#A5ABB6" stroke="none" d="M 25 0.5 L 46.79574397084919 0.5 L 46.79574397084919 -0.5 L 25 -0.5 Z M 105.98324397084919 0.5 L 127.77898794169838 0.5 L 127.77898794169838 3.5 L 134.77898794169838 0 L 127.77898794169838 -3.5 L 127.77898794169838 -0.5 L 105.98324397084919 -0.5 Z"/><text text-anchor="middle" pointer-events="none" font-size="8px" fill="#000000" x="76.38949397084919" y="3" font-family="sans-serif">DESTINATION</text></g><g class="relationship" transform="translate(-6.014793928091296 47.58433434308657) rotate(402.8204652627359)"><path class="outline" fill="#A5ABB6" stroke="none" d="M 25 0.5 L 58.96521052201888 0.5 L 58.96521052201888 -0.5 L 25 -0.5 Z M 93.41052302201888 0.5 L 127.37573354403776 0.5 L 127.37573354403776 3.5 L 134.37573354403776 0 L 127.37573354403776 -3.5 L 127.37573354403776 -0.5 L 93.41052302201888 -0.5 Z"/><text text-anchor="middle" pointer-events="none" font-size="8px" fill="#000000" x="76.18786677201888" y="3" font-family="sans-serif">ORIGIN</text></g><g class="relationship" transform="translate(-6.014793928091296 47.58433434308657) rotate(422.63531565462114)"><path class="outline" fill="#A5ABB6" stroke="none" d="M 25 0.5 L 27.134502069029637 0.5 L 27.134502069029637 -0.5 L 25 -0.5 Z M 64.69309581902964 0.5 L 66.82759788805927 0.5 L 66.82759788805927 3.5 L 73.82759788805927 0 L 66.82759788805927 -3.5 L 66.82759788805927 -0.5 L 64.69309581902964 -0.5 Z"/><text text-anchor="middle" pointer-events="none" font-size="8px" fill="#000000" x="45.91379894402964" y="3" font-family="sans-serif">DESTI…</text></g><g class="relationship" transform="translate(282.3256415111797 221.69460441111897) rotate(200.99191751510762)"><path class="outline" fill="#A5ABB6" stroke="none" d="M 25 0.5 L 71.09112849146804 0.5 L 71.09112849146804 -0.5 L 25 -0.5 Z M 105.53644099146804 0.5 L 151.62756948293608 0.5 L 151.62756948293608 3.5 L 158.62756948293608 0 L 151.62756948293608 -3.5 L 151.62756948293608 -0.5 L 105.53644099146804 -0.5 Z"/><text text-anchor="middle" pointer-events="none" font-size="8px" fill="#000000" x="88.31378474146804" y="3" transform="rotate(180 88.31378474146804 0)" font-family="sans-serif">ORIGIN</text></g><g class="relationship" transform="translate(282.3256415111797 221.69460441111897) rotate(429.7422999345623)"><path class="outline" fill="#A5ABB6" stroke="none" d="M 25 0.5 L 33.105881249643886 0.5 L 33.105881249643886 -0.5 L 25 -0.5 Z M 92.29338124964389 0.5 L 100.39926249928777 0.5 L 100.39926249928777 3.5 L 107.39926249928777 0 L 100.39926249928777 -3.5 L 100.39926249928777 -0.5 L 92.29338124964389 -0.5 Z"/><text text-anchor="middle" pointer-events="none" font-size="8px" fill="#000000" x="62.699631249643886" y="3" font-family="sans-serif">DESTINATION</text></g><g class="relationship" transform="translate(-72.9831325977523 68.42300789193172) rotate(385.4463667887931)"><path class="outline" fill="#A5ABB6" stroke="none" d="M 25 0.5 L 81.08844898735849 0.5 L 81.08844898735849 -0.5 L 25 -0.5 Z M 115.53376148735849 0.5 L 171.62221047471698 0.5 L 171.62221047471698 3.5 L 178.62221047471698 0 L 171.62221047471698 -3.5 L 171.62221047471698 -0.5 L 115.53376148735849 -0.5 Z"/><text text-anchor="middle" pointer-events="none" font-size="8px" fill="#000000" x="98.31110523735849" y="3" font-family="sans-serif">ORIGIN</text></g><g class="relationship" transform="translate(-72.9831325977523 68.42300789193172) rotate(521.2445422776239)"><path class="outline" fill="#A5ABB6" stroke="none" d="M 25 0.5 L 34.8391442184049 0.5 L 34.8391442184049 -0.5 L 25 -0.5 Z M 94.0266442184049 0.5 L 103.8657884368098 0.5 L 103.8657884368098 3.5 L 110.8657884368098 0 L 103.8657884368098 -3.5 L 103.8657884368098 -0.5 L 94.0266442184049 -0.5 Z"/><text text-anchor="middle" pointer-events="none" font-size="8px" fill="#000000" x="64.4328942184049" y="3" transform="rotate(180 64.4328942184049 0)" font-family="sans-serif">DESTINATION</text></g><g class="relationship" transform="translate(51.88721389073909 32.258278939473726) rotate(424.4932138761639)"><path class="outline" fill="#A5ABB6" stroke="none" d="M 25 0.5 L 47.78126392425267 0.5 L 47.78126392425267 -0.5 L 25 -0.5 Z M 82.22657642425267 0.5 L 105.00784034850534 0.5 L 105.00784034850534 3.5 L 112.00784034850534 0 L 105.00784034850534 -3.5 L 105.00784034850534 -0.5 L 82.22657642425267 -0.5 Z"/><text text-anchor="middle" pointer-events="none" font-size="8px" fill="#000000" x="65.00392017425267" y="3" font-family="sans-serif">ORIGIN</text></g><g class="relationship" transform="translate(51.88721389073909 32.258278939473726) rotate(456.8999039743044)"><path class="outline" fill="#A5ABB6" stroke="none" d="M 25 0.5 L 26.755451170183463 0.5 L 26.755451170183463 -0.5 L 25 -0.5 Z M 70.09138867018346 0.5 L 71.84683984036693 0.5 L 71.84683984036693 3.5 L 78.84683984036693 0 L 71.84683984036693 -3.5 L 71.84683984036693 -0.5 L 70.09138867018346 -0.5 Z"/><text text-anchor="middle" pointer-events="none" font-size="8px" fill="#000000" x="48.42341992018346" y="3" transform="rotate(180 48.42341992018346 0)" font-family="sans-serif">DESTIN…</text></g><g class="relationship" transform="translate(59.99546835715594 -34.75815165962021) rotate(435.0561648701235)"><path class="outline" fill="#A5ABB6" stroke="none" d="M 25 0.5 L 77.94989300611529 0.5 L 77.94989300611529 -0.5 L 25 -0.5 Z M 112.39520550611529 0.5 L 165.34509851223058 0.5 L 165.34509851223058 3.5 L 172.34509851223058 0 L 165.34509851223058 -3.5 L 165.34509851223058 -0.5 L 112.39520550611529 -0.5 Z"/><text text-anchor="middle" pointer-events="none" font-size="8px" fill="#000000" x="95.17254925611529" y="3" font-family="sans-serif">ORIGIN</text></g><g class="relationship" transform="translate(59.99546835715594 -34.75815165962021) rotate(272.1659273777447)"><path class="outline" fill="#A5ABB6" stroke="none" d="M 25 0.5 L 36.56353210227209 0.5 L 36.56353210227209 -0.5 L 25 -0.5 Z M 95.75103210227209 0.5 L 107.31456420454418 0.5 L 107.31456420454418 3.5 L 114.31456420454418 0 L 107.31456420454418 -3.5 L 107.31456420454418 -0.5 L 95.75103210227209 -0.5 Z"/><text text-anchor="middle" pointer-events="none" font-size="8px" fill="#000000" x="66.15728210227209" y="3" font-family="sans-serif">DESTINATION</text></g><g class="relationship" transform="translate(122.17065397216165 -36.078960796415984) rotate(453.36401602478173)"><path class="outline" fill="#A5ABB6" stroke="none" d="M 25 0.5 L 75.43879839238575 0.5 L 75.43879839238575 -0.5 L 25 -0.5 Z M 109.88411089238575 0.5 L 160.3229092847715 0.5 L 160.3229092847715 3.5 L 167.3229092847715 0 L 160.3229092847715 -3.5 L 160.3229092847715 -0.5 L 109.88411089238575 -0.5 Z"/><text text-anchor="middle" pointer-events="none" font-size="8px" fill="#000000" x="92.66145464238575" y="3" transform="rotate(180 92.66145464238575 0)" font-family="sans-serif">ORIGIN</text></g><g class="relationship" transform="translate(122.17065397216165 -36.078960796415984) rotate(247.57368909776153)"><path class="outline" fill="#A5ABB6" stroke="none" d="M 25 0.5 L 41.49439298956939 0.5 L 41.49439298956939 -0.5 L 25 -0.5 Z M 100.68189298956939 0.5 L 117.17628597913878 0.5 L 117.17628597913878 3.5 L 124.17628597913878 0 L 117.17628597913878 -3.5 L 117.17628597913878 -0.5 L 100.68189298956939 -0.5 Z"/><text text-anchor="middle" pointer-events="none" font-size="8px" fill="#000000" x="71.08814298956939" y="3" transform="rotate(180 71.08814298956939 0)" font-family="sans-serif">DESTINATION</text></g><g class="relationship" transform="translate(-21.525260590398005 218.90412159718318) rotate(334.5581956465189)"><path class="outline" fill="#A5ABB6" stroke="none" d="M 25 0.5 L 52.592557982227916 0.5 L 52.592557982227916 -0.5 L 25 -0.5 Z M 87.03787048222792 0.5 L 114.63042846445583 0.5 L 114.63042846445583 3.5 L 121.63042846445583 0 L 114.63042846445583 -3.5 L 114.63042846445583 -0.5 L 87.03787048222792 -0.5 Z"/><text text-anchor="middle" pointer-events="none" font-size="8px" fill="#000000" x="69.81521423222792" y="3" font-family="sans-serif">ORIGIN</text></g><g class="relationship" transform="translate(-21.525260590398005 218.90412159718318) rotate(306.10461078938636)"><path class="outline" fill="#A5ABB6" stroke="none" d="M 25 0.5 L 26.538131940056424 0.5 L 26.538131940056424 -0.5 L 25 -0.5 Z M 69.87406944005642 0.5 L 71.41220138011285 0.5 L 71.41220138011285 3.5 L 78.41220138011285 0 L 71.41220138011285 -3.5 L 71.41220138011285 -0.5 L 69.87406944005642 -0.5 Z"/><text text-anchor="middle" pointer-events="none" font-size="8px" fill="#000000" x="48.206100690056424" y="3" font-family="sans-serif">DESTIN…</text></g><g class="relationship" transform="translate(-95.95286569658613 139.42325151886087) rotate(364.5580258178253)"><path class="outline" fill="#A5ABB6" stroke="none" d="M 25 0.5 L 83.02451895974812 0.5 L 83.02451895974812 -0.5 L 25 -0.5 Z M 117.46983145974812 0.5 L 175.49435041949624 0.5 L 175.49435041949624 3.5 L 182.49435041949624 0 L 175.49435041949624 -3.5 L 175.49435041949624 -0.5 L 117.46983145974812 -0.5 Z"/><text text-anchor="middle" pointer-events="none" font-size="8px" fill="#000000" x="100.24717520974812" y="3" font-family="sans-serif">ORIGIN</text></g><g class="relationship" transform="translate(-95.95286569658613 139.42325151886087) rotate(194.49200331143572)"><path class="outline" fill="#A5ABB6" stroke="none" d="M 25 0.5 L 26.741327943792015 0.5 L 26.741327943792015 -0.5 L 25 -0.5 Z M 75.41320294379202 0.5 L 77.15453088758403 0.5 L 77.15453088758403 3.5 L 84.15453088758403 0 L 77.15453088758403 -3.5 L 77.15453088758403 -0.5 L 75.41320294379202 -0.5 Z"/><text text-anchor="middle" pointer-events="none" font-size="8px" fill="#000000" x="51.077265443792015" y="3" transform="rotate(180 51.077265443792015 0)" font-family="sans-serif">DESTINA…</text></g><g class="relationship" transform="translate(30.80975457482168 321.3769770567294) rotate(295.82437842199386)"><path class="outline" fill="#A5ABB6" stroke="none" d="M 25 0.5 L 71.18838989949724 0.5 L 71.18838989949724 -0.5 L 25 -0.5 Z M 105.63370239949724 0.5 L 151.82209229899448 0.5 L 151.82209229899448 3.5 L 158.82209229899448 0 L 151.82209229899448 -3.5 L 151.82209229899448 -0.5 L 105.63370239949724 -0.5 Z"/><text text-anchor="middle" pointer-events="none" font-size="8px" fill="#000000" x="88.41104614949724" y="3" font-family="sans-serif">ORIGIN</text></g><g class="relationship" transform="translate(30.80975457482168 321.3769770567294) rotate(455.8385404939077)"><path class="outline" fill="#A5ABB6" stroke="none" d="M 25 0.5 L 33.965882521952054 0.5 L 33.965882521952054 -0.5 L 25 -0.5 Z M 93.15338252195205 0.5 L 102.11926504390411 0.5 L 102.11926504390411 3.5 L 109.11926504390411 0 L 102.11926504390411 -3.5 L 102.11926504390411 -0.5 L 93.15338252195205 -0.5 Z"/><text text-anchor="middle" pointer-events="none" font-size="8px" fill="#000000" x="63.559632521952054" y="3" transform="rotate(180 63.559632521952054 0)" font-family="sans-serif">DESTINATION</text></g><g class="relationship" transform="translate(-78.54281730299785 196.6962354366214) rotate(347.84974394824656)"><path class="outline" fill="#A5ABB6" stroke="none" d="M 25 0.5 L 76.16168662139948 0.5 L 76.16168662139948 -0.5 L 25 -0.5 Z M 110.60699912139948 0.5 L 161.76868574279897 0.5 L 161.76868574279897 3.5 L 168.76868574279897 0 L 161.76868574279897 -3.5 L 161.76868574279897 -0.5 L 110.60699912139948 -0.5 Z"/><text text-anchor="middle" pointer-events="none" font-size="8px" fill="#000000" x="93.38434287139948" y="3" font-family="sans-serif">ORIGIN</text></g><g class="relationship" transform="translate(-78.54281730299785 196.6962354366214) rotate(214.49679376735168)"><path class="outline" fill="#A5ABB6" stroke="none" d="M 25 0.5 L 41.58342402034282 0.5 L 41.58342402034282 -0.5 L 25 -0.5 Z M 100.77092402034282 0.5 L 117.35434804068564 0.5 L 117.35434804068564 3.5 L 124.35434804068564 0 L 117.35434804068564 -3.5 L 117.35434804068564 -0.5 L 100.77092402034282 -0.5 Z"/><text text-anchor="middle" pointer-events="none" font-size="8px" fill="#000000" x="71.17717402034282" y="3" transform="rotate(180 71.17717402034282 0)" font-family="sans-serif">DESTINATION</text></g><g class="relationship" transform="translate(30.683555268010394 248.27410124789253) rotate(310.9692561510189)"><path class="outline" fill="#A5ABB6" stroke="none" d="M 25 0.5 L 40.43895016605323 0.5 L 40.43895016605323 -0.5 L 25 -0.5 Z M 74.88426266605323 0.5 L 90.32321283210646 0.5 L 90.32321283210646 3.5 L 97.32321283210646 0 L 90.32321283210646 -3.5 L 90.32321283210646 -0.5 L 74.88426266605323 -0.5 Z"/><text text-anchor="middle" pointer-events="none" font-size="8px" fill="#000000" x="57.66160641605323" y="3" font-family="sans-serif">ORIGIN</text></g><g class="relationship" transform="translate(30.683555268010394 248.27410124789253) rotate(274.41977038868606)"><path class="outline" fill="#A5ABB6" stroke="none" d="M 25 0.5 L 25.535196365517656 0.5 L 25.535196365517656 -0.5 L 25 -0.5 Z M 80.72269636551766 0.5 L 81.25789273103531 0.5 L 81.25789273103531 3.5 L 88.25789273103531 0 L 81.25789273103531 -3.5 L 81.25789273103531 -0.5 L 80.72269636551766 -0.5 Z"/><text text-anchor="middle" pointer-events="none" font-size="8px" fill="#000000" x="53.128946365517656" y="3" font-family="sans-serif">DESTINATI…</text></g><g class="relationship" transform="translate(243.44600320136254 285.5430146239662) rotate(224.35968101549145)"><path class="outline" fill="#A5ABB6" stroke="none" d="M 25 0.5 L 71.98172403731118 0.5 L 71.98172403731118 -0.5 L 25 -0.5 Z M 106.42703653731118 0.5 L 153.40876057462236 0.5 L 153.40876057462236 3.5 L 160.40876057462236 0 L 153.40876057462236 -3.5 L 153.40876057462236 -0.5 L 106.42703653731118 -0.5 Z"/><text text-anchor="middle" pointer-events="none" font-size="8px" fill="#000000" x="89.20438028731118" y="3" transform="rotate(180 89.20438028731118 0)" font-family="sans-serif">ORIGIN</text></g><g class="relationship" transform="translate(243.44600320136254 285.5430146239662) rotate(395.4684655299358)"><path class="outline" fill="#A5ABB6" stroke="none" d="M 25 0.5 L 26.844760492869277 0.5 L 26.844760492869277 -0.5 L 25 -0.5 Z M 70.18069799286928 0.5 L 72.02545848573855 0.5 L 72.02545848573855 3.5 L 79.02545848573855 0 L 72.02545848573855 -3.5 L 72.02545848573855 -0.5 L 70.18069799286928 -0.5 Z"/><text text-anchor="middle" pointer-events="none" font-size="8px" fill="#000000" x="48.51272924286928" y="3" font-family="sans-serif">DESTIN…</text></g><g class="relationship" transform="translate(188.39465206046327 309.02593984192663) rotate(243.15045437220942)"><path class="outline" fill="#A5ABB6" stroke="none" d="M 25 0.5 L 65.08441789967944 0.5 L 65.08441789967944 -0.5 L 25 -0.5 Z M 99.52973039967944 0.5 L 139.61414829935887 0.5 L 139.61414829935887 3.5 L 146.61414829935887 0 L 139.61414829935887 -3.5 L 139.61414829935887 -0.5 L 99.52973039967944 -0.5 Z"/><text text-anchor="middle" pointer-events="none" font-size="8px" fill="#000000" x="82.30707414967944" y="3" transform="rotate(180 82.30707414967944 0)" font-family="sans-serif">ORIGIN</text></g><g class="relationship" transform="translate(188.39465206046327 309.02593984192663) rotate(374.78031863633066)"><path class="outline" fill="#A5ABB6" stroke="none" d="M 25 0.5 L 39.1845229528153 0.5 L 39.1845229528153 -0.5 L 25 -0.5 Z M 98.3720229528153 0.5 L 112.5565459056306 0.5 L 112.5565459056306 3.5 L 119.5565459056306 0 L 112.5565459056306 -3.5 L 112.5565459056306 -0.5 L 98.3720229528153 -0.5 Z"/><text text-anchor="middle" pointer-events="none" font-size="8px" fill="#000000" x="68.7782729528153" y="3" font-family="sans-serif">DESTINATION</text></g><g class="relationship" transform="translate(276.46327395801643 130.75757684430084) rotate(531.3615547792291)"><path class="outline" fill="#A5ABB6" stroke="none" d="M 25 0.5 L 63.016302696240686 0.5 L 63.016302696240686 -0.5 L 25 -0.5 Z M 97.46161519624069 0.5 L 135.47791789248137 0.5 L 135.47791789248137 3.5 L 142.47791789248137 0 L 135.47791789248137 -3.5 L 135.47791789248137 -0.5 L 97.46161519624069 -0.5 Z"/><text text-anchor="middle" pointer-events="none" font-size="8px" fill="#000000" x="80.23895894624069" y="3" transform="rotate(180 80.23895894624069 0)" font-family="sans-serif">ORIGIN</text></g><g class="relationship" transform="translate(276.46327395801643 130.75757684430084) rotate(352.1229798288829)"><path class="outline" fill="#A5ABB6" stroke="none" d="M 25 0.5 L 44.447021698518 0.5 L 44.447021698518 -0.5 L 25 -0.5 Z M 103.634521698518 0.5 L 123.081543397036 0.5 L 123.081543397036 3.5 L 130.081543397036 0 L 123.081543397036 -3.5 L 123.081543397036 -0.5 L 103.634521698518 -0.5 Z"/><text text-anchor="middle" pointer-events="none" font-size="8px" fill="#000000" x="74.040771698518" y="3" font-family="sans-serif">DESTINATION</text></g></g><g class="layer nodes"><g class="node" transform="translate(110.8852555617368,155.91255260580823)"><circle class="outline" cx="0" cy="0" r="25" fill="#ECB5C9" stroke="#da7298" stroke-width="2px"/><text text-anchor="middle" pointer-events="none" font-family="sans-serif" dy="1.5625" font-size="25" fill="#2A2C34"/><text text-anchor="middle" pointer-events="none" x="0" y="5" font-size="10px" fill="#2A2C34" font-family="sans-serif"> LAX</text></g><g class="node" transform="translate(378.26974597917217,-36.12016364191427)"><circle class="outline" cx="0" cy="0" r="25" fill="#ECB5C9" stroke="#da7298" stroke-width="2px"/><text text-anchor="middle" pointer-events="none" font-family="sans-serif" dy="1.5625" font-size="25" fill="#2A2C34"/><text text-anchor="middle" pointer-events="none" x="0" y="5" font-size="10px" fill="#2A2C34" font-family="sans-serif"> LAS</text></g><g class="node" transform="translate(39.41155561245131,135.3530125360751)"><circle class="outline" cx="0" cy="0" r="25" fill="#ECB5C9" stroke="#da7298" stroke-width="2px"/><text text-anchor="middle" pointer-events="none" font-family="sans-serif" dy="1.5625" font-size="25" fill="#2A2C34"/><text text-anchor="middle" pointer-events="none" x="0" y="5" font-size="10px" fill="#2A2C34" font-family="sans-serif"> ABQ</text></g><g class="node" transform="translate(17.166406720476974,454.80049940283726)"><circle class="outline" cx="0" cy="0" r="25" fill="#ECB5C9" stroke="#da7298" stroke-width="2px"/><text text-anchor="middle" pointer-events="none" font-family="sans-serif" dy="1.5625" font-size="25" fill="#2A2C34"/><text text-anchor="middle" pointer-events="none" x="0" y="5" font-size="10px" fill="#2A2C34" font-family="sans-serif"> EWR</text></g><g class="node" transform="translate(328.1679777452912,345.9042856720979)"><circle class="outline" cx="0" cy="0" r="25" fill="#ECB5C9" stroke="#da7298" stroke-width="2px"/><text text-anchor="middle" pointer-events="none" font-family="sans-serif" dy="1.5625" font-size="25" fill="#2A2C34"/><text text-anchor="middle" pointer-events="none" x="0" y="5" font-size="10px" fill="#2A2C34" font-family="sans-serif"> FAT</text></g><g class="node" transform="translate(-201.63438060664205,112.10788918181393)"><circle class="outline" cx="0" cy="0" r="25" fill="#ECB5C9" stroke="#da7298" stroke-width="2px"/><text text-anchor="middle" pointer-events="none" font-family="sans-serif" dy="1.5625" font-size="25" fill="#2A2C34"/><text text-anchor="middle" pointer-events="none" x="0" y="5" font-size="10px" fill="#2A2C34" font-family="sans-serif"> SMF</text></g><g class="node" transform="translate(266.14644695284284,-145.02676121941062)"><circle class="outline" cx="0" cy="0" r="25" fill="#ECB5C9" stroke="#da7298" stroke-width="2px"/><text text-anchor="middle" pointer-events="none" font-family="sans-serif" dy="1.5625" font-size="25" fill="#2A2C34"/><text text-anchor="middle" pointer-events="none" x="0" y="5" font-size="10px" fill="#2A2C34" font-family="sans-serif"> BOS</text></g><g class="node" transform="translate(65.2606618682661,-173.9731851035433)"><circle class="outline" cx="0" cy="0" r="25" fill="#ECB5C9" stroke="#da7298" stroke-width="2px"/><text text-anchor="middle" pointer-events="none" font-family="sans-serif" dy="1.5625" font-size="25" fill="#2A2C34"/><text text-anchor="middle" pointer-events="none" x="0" y="5" font-size="10px" fill="#2A2C34" font-family="sans-serif"> TUS</text></g><g class="node" transform="translate(430.0815468417631,109.50407504762039)"><circle class="outline" cx="0" cy="0" r="25" fill="#ECB5C9" stroke="#da7298" stroke-width="2px"/><text text-anchor="middle" pointer-events="none" font-family="sans-serif" dy="1.5625" font-size="25" fill="#2A2C34"/><text text-anchor="middle" pointer-events="none" x="0" y="5" font-size="10px" fill="#2A2C34" font-family="sans-serif"> IAH</text></g><g class="node" transform="translate(255.45037036857562,62.23363540317048)"><circle class="outline" cx="0" cy="0" r="25" fill="#4C8EDA" stroke="#2870c2" stroke-width="2px"/><text text-anchor="middle" pointer-events="none" font-family="sans-serif" dy="1.5625" font-size="25" fill="#FFFFFF"/><text text-anchor="middle" pointer-events="none" x="0" y="5" font-size="10px" fill="#FFFFFF" font-family="sans-serif"> 11/29/20…</text></g><g class="node" transform="translate(90.69146831170313,250.4921266799975)"><circle class="outline" cx="0" cy="0" r="25" fill="#4C8EDA" stroke="#2870c2" stroke-width="2px"/><text text-anchor="middle" pointer-events="none" font-family="sans-serif" dy="1.5625" font-size="25" fill="#FFFFFF"/><text text-anchor="middle" pointer-events="none" x="0" y="5" font-size="10px" fill="#FFFFFF" font-family="sans-serif"> 11/3/2015</text></g><g class="node" transform="translate(110.82525982670813,43.52891198183869)"><circle class="outline" cx="0" cy="0" r="25" fill="#4C8EDA" stroke="#2870c2" stroke-width="2px"/><text text-anchor="middle" pointer-events="none" font-family="sans-serif" dy="1.5625" font-size="25" fill="#FFFFFF"/><text text-anchor="middle" pointer-events="none" x="0" y="5" font-size="10px" fill="#FFFFFF" font-family="sans-serif"> 11/1/2015</text></g><g class="node" transform="translate(161.26260170271894,79.49294530991014)"><circle class="outline" cx="0" cy="0" r="25" fill="#4C8EDA" stroke="#2870c2" stroke-width="2px"/><text text-anchor="middle" pointer-events="none" font-family="sans-serif" dy="1.5625" font-size="25" fill="#FFFFFF"/><text text-anchor="middle" pointer-events="none" x="0" y="5" font-size="10px" fill="#FFFFFF" font-family="sans-serif"> 11/4/2015</text></g><g class="node" transform="translate(92.68662593089915,335.1149099203556)"><circle class="outline" cx="0" cy="0" r="25" fill="#4C8EDA" stroke="#2870c2" stroke-width="2px"/><text text-anchor="middle" pointer-events="none" font-family="sans-serif" dy="1.5625" font-size="25" fill="#FFFFFF"/><text text-anchor="middle" pointer-events="none" x="0" y="5" font-size="10px" fill="#FFFFFF" font-family="sans-serif"> 11/29/20…</text></g><g class="node" transform="translate(222.99376759592832,229.43471977662514)"><circle class="outline" cx="0" cy="0" r="25" fill="#4C8EDA" stroke="#2870c2" stroke-width="2px"/><text text-anchor="middle" pointer-events="none" font-family="sans-serif" dy="1.5625" font-size="25" fill="#FFFFFF"/><text text-anchor="middle" pointer-events="none" x="0" y="5" font-size="10px" fill="#FFFFFF" font-family="sans-serif"> 11/2/2015</text></g><g class="node" transform="translate(-40.06929082758234,118.4730540022329)"><circle class="outline" cx="0" cy="0" r="25" fill="#4C8EDA" stroke="#2870c2" stroke-width="2px"/><text text-anchor="middle" pointer-events="none" font-family="sans-serif" dy="1.5625" font-size="25" fill="#FFFFFF"/><text text-anchor="middle" pointer-events="none" x="0" y="5" font-size="10px" fill="#FFFFFF" font-family="sans-serif"> 11/3/2015</text></g><g class="node" transform="translate(205.3738290302089,2.743377504564822)"><circle class="outline" cx="0" cy="0" r="25" fill="#4C8EDA" stroke="#2870c2" stroke-width="2px"/><text text-anchor="middle" pointer-events="none" font-family="sans-serif" dy="1.5625" font-size="25" fill="#FFFFFF"/><text text-anchor="middle" pointer-events="none" x="0" y="5" font-size="10px" fill="#FFFFFF" font-family="sans-serif"> 11/29/20…</text></g><g class="node" transform="translate(-6.014793928091296,47.58433434308657)"><circle class="outline" cx="0" cy="0" r="25" fill="#4C8EDA" stroke="#2870c2" stroke-width="2px"/><text text-anchor="middle" pointer-events="none" font-family="sans-serif" dy="1.5625" font-size="25" fill="#FFFFFF"/><text text-anchor="middle" pointer-events="none" x="0" y="5" font-size="10px" fill="#FFFFFF" font-family="sans-serif"> 11/2/2015</text></g><g class="node" transform="translate(282.3256415111797,221.69460441111897)"><circle class="outline" cx="0" cy="0" r="25" fill="#4C8EDA" stroke="#2870c2" stroke-width="2px"/><text text-anchor="middle" pointer-events="none" font-family="sans-serif" dy="1.5625" font-size="25" fill="#FFFFFF"/><text text-anchor="middle" pointer-events="none" x="0" y="5" font-size="10px" fill="#FFFFFF" font-family="sans-serif"> 11/3/2015</text></g><g class="node" transform="translate(-72.9831325977523,68.42300789193172)"><circle class="outline" cx="0" cy="0" r="25" fill="#4C8EDA" stroke="#2870c2" stroke-width="2px"/><text text-anchor="middle" pointer-events="none" font-family="sans-serif" dy="1.5625" font-size="25" fill="#FFFFFF"/><text text-anchor="middle" pointer-events="none" x="0" y="5" font-size="10px" fill="#FFFFFF" font-family="sans-serif"> 11/1/2015</text></g><g class="node" transform="translate(51.88721389073909,32.258278939473726)"><circle class="outline" cx="0" cy="0" r="25" fill="#4C8EDA" stroke="#2870c2" stroke-width="2px"/><text text-anchor="middle" pointer-events="none" font-family="sans-serif" dy="1.5625" font-size="25" fill="#FFFFFF"/><text text-anchor="middle" pointer-events="none" x="0" y="5" font-size="10px" fill="#FFFFFF" font-family="sans-serif"> 11/2/2015</text></g><g class="node" transform="translate(59.99546835715594,-34.75815165962021)"><circle class="outline" cx="0" cy="0" r="25" fill="#4C8EDA" stroke="#2870c2" stroke-width="2px"/><text text-anchor="middle" pointer-events="none" font-family="sans-serif" dy="1.5625" font-size="25" fill="#FFFFFF"/><text text-anchor="middle" pointer-events="none" x="0" y="5" font-size="10px" fill="#FFFFFF" font-family="sans-serif"> 11/2/2015</text></g><g class="node" transform="translate(122.17065397216165,-36.078960796415984)"><circle class="outline" cx="0" cy="0" r="25" fill="#4C8EDA" stroke="#2870c2" stroke-width="2px"/><text text-anchor="middle" pointer-events="none" font-family="sans-serif" dy="1.5625" font-size="25" fill="#FFFFFF"/><text text-anchor="middle" pointer-events="none" x="0" y="5" font-size="10px" fill="#FFFFFF" font-family="sans-serif"> 11/1/2015</text></g><g class="node" transform="translate(-21.525260590398005,218.90412159718318)"><circle class="outline" cx="0" cy="0" r="25" fill="#4C8EDA" stroke="#2870c2" stroke-width="2px"/><text text-anchor="middle" pointer-events="none" font-family="sans-serif" dy="1.5625" font-size="25" fill="#FFFFFF"/><text text-anchor="middle" pointer-events="none" x="0" y="5" font-size="10px" fill="#FFFFFF" font-family="sans-serif"> 11/3/2015</text></g><g class="node" transform="translate(-95.95286569658613,139.42325151886087)"><circle class="outline" cx="0" cy="0" r="25" fill="#4C8EDA" stroke="#2870c2" stroke-width="2px"/><text text-anchor="middle" pointer-events="none" font-family="sans-serif" dy="1.5625" font-size="25" fill="#FFFFFF"/><text text-anchor="middle" pointer-events="none" x="0" y="5" font-size="10px" fill="#FFFFFF" font-family="sans-serif"> 11/4/2015</text></g><g class="node" transform="translate(30.80975457482168,321.3769770567294)"><circle class="outline" cx="0" cy="0" r="25" fill="#4C8EDA" stroke="#2870c2" stroke-width="2px"/><text text-anchor="middle" pointer-events="none" font-family="sans-serif" dy="1.5625" font-size="25" fill="#FFFFFF"/><text text-anchor="middle" pointer-events="none" x="0" y="5" font-size="10px" fill="#FFFFFF" font-family="sans-serif"> 11/30/20…</text></g><g class="node" transform="translate(-78.54281730299785,196.6962354366214)"><circle class="outline" cx="0" cy="0" r="25" fill="#4C8EDA" stroke="#2870c2" stroke-width="2px"/><text text-anchor="middle" pointer-events="none" font-family="sans-serif" dy="1.5625" font-size="25" fill="#FFFFFF"/><text text-anchor="middle" pointer-events="none" x="0" y="5" font-size="10px" fill="#FFFFFF" font-family="sans-serif"> 11/2/2015</text></g><g class="node" transform="translate(30.683555268010394,248.27410124789253)"><circle class="outline" cx="0" cy="0" r="25" fill="#4C8EDA" stroke="#2870c2" stroke-width="2px"/><text text-anchor="middle" pointer-events="none" font-family="sans-serif" dy="1.5625" font-size="25" fill="#FFFFFF"/><text text-anchor="middle" pointer-events="none" x="0" y="5" font-size="10px" fill="#FFFFFF" font-family="sans-serif"> 11/1/2015</text></g><g class="node" transform="translate(243.44600320136254,285.5430146239662)"><circle class="outline" cx="0" cy="0" r="25" fill="#4C8EDA" stroke="#2870c2" stroke-width="2px"/><text text-anchor="middle" pointer-events="none" font-family="sans-serif" dy="1.5625" font-size="25" fill="#FFFFFF"/><text text-anchor="middle" pointer-events="none" x="0" y="5" font-size="10px" fill="#FFFFFF" font-family="sans-serif"> 11/1/2015</text></g><g class="node" transform="translate(188.39465206046327,309.02593984192663)"><circle class="outline" cx="0" cy="0" r="25" fill="#4C8EDA" stroke="#2870c2" stroke-width="2px"/><text text-anchor="middle" pointer-events="none" font-family="sans-serif" dy="1.5625" font-size="25" fill="#FFFFFF"/><text text-anchor="middle" pointer-events="none" x="0" y="5" font-size="10px" fill="#FFFFFF" font-family="sans-serif"> 11/4/2015</text></g><g class="node" transform="translate(276.46327395801643,130.75757684430084)"><circle class="outline" cx="0" cy="0" r="25" fill="#4C8EDA" stroke="#2870c2" stroke-width="2px"/><text text-anchor="middle" pointer-events="none" font-family="sans-serif" dy="1.5625" font-size="25" fill="#FFFFFF"/><text text-anchor="middle" pointer-events="none" x="0" y="5" font-size="10px" fill="#FFFFFF" font-family="sans-serif"> 11/30/20…</text></g></g></svg>